<svg xmlns="http://www.w3.org/2000/svg" height="512pt" version="1.1" viewBox="0 -4 512 512" width="512pt">
<g id="surface1">
<path d="M 312.109375 71.640625 C 312.109375 102.628906 286.988281 127.75 256 127.75 C 225.011719 127.75 199.890625 102.628906 199.890625 71.640625 C 199.890625 40.652344 225.011719 15.53125 256 15.53125 C 286.988281 15.53125 312.109375 40.652344 312.109375 71.640625 Z M 312.109375 71.640625 " style=" stroke:none;fill-rule:nonzero;fill:rgb(67.843137%,92.156863%,95.294118%);fill-opacity:1;"/>
<path d="M 272.03125 111.71875 C 241.042969 111.71875 215.921875 86.597656 215.921875 55.609375 C 215.921875 44.214844 219.328125 33.621094 225.160156 24.769531 C 209.941406 34.804688 199.890625 52.042969 199.890625 71.640625 C 199.890625 102.628906 225.011719 127.75 256 127.75 C 275.59375 127.75 292.832031 117.699219 302.871094 102.476562 C 294.019531 108.3125 283.425781 111.71875 272.03125 111.71875 Z M 272.03125 111.71875 " style=" stroke:none;fill-rule:nonzero;fill:rgb(19.215686%,80%,87.843137%);fill-opacity:1;"/>
<path d="M 119.734375 392.265625 C 119.734375 423.253906 94.613281 448.375 63.625 448.375 C 32.636719 448.375 7.515625 423.253906 7.515625 392.265625 C 7.515625 361.277344 32.636719 336.15625 63.625 336.15625 C 94.613281 336.15625 119.734375 361.277344 119.734375 392.265625 Z M 119.734375 392.265625 " style=" stroke:none;fill-rule:nonzero;fill:rgb(99.215686%,70.980392%,43.921569%);fill-opacity:1;"/>
<path d="M 79.65625 432.34375 C 48.667969 432.34375 23.546875 407.222656 23.546875 376.234375 C 23.546875 364.839844 26.953125 354.246094 32.785156 345.398438 C 17.566406 355.433594 7.515625 372.671875 7.515625 392.265625 C 7.515625 423.253906 32.636719 448.375 63.625 448.375 C 83.21875 448.375 100.457031 438.324219 110.492188 423.105469 C 101.640625 428.9375 91.050781 432.34375 79.65625 432.34375 Z M 79.65625 432.34375 " style=" stroke:none;fill-rule:nonzero;fill:rgb(98.823529%,63.921569%,29.803922%);fill-opacity:1;"/>
<path d="M 504.484375 392.265625 C 504.484375 423.253906 479.363281 448.375 448.375 448.375 C 417.386719 448.375 392.265625 423.253906 392.265625 392.265625 C 392.265625 361.277344 417.386719 336.15625 448.375 336.15625 C 479.363281 336.15625 504.484375 361.277344 504.484375 392.265625 Z M 504.484375 392.265625 " style=" stroke:none;fill-rule:nonzero;fill:rgb(100%,90.588235%,50.980392%);fill-opacity:1;"/>
<path d="M 464.40625 432.34375 C 433.417969 432.34375 408.296875 407.222656 408.296875 376.234375 C 408.296875 364.839844 411.703125 354.246094 417.539062 345.398438 C 402.316406 355.433594 392.265625 372.671875 392.265625 392.265625 C 392.265625 423.253906 417.386719 448.375 448.375 448.375 C 467.972656 448.375 485.210938 438.324219 495.246094 423.105469 C 486.394531 428.9375 475.800781 432.34375 464.40625 432.34375 Z M 464.40625 432.34375 " style=" stroke:none;fill-rule:nonzero;fill:rgb(100%,84.313725%,18.039216%);fill-opacity:1;"/>
<path d="M 167.828125 304.09375 C 167.828125 255.398438 256 175.84375 256 175.84375 C 256 175.84375 344.171875 255.398438 344.171875 304.09375 C 344.171875 352.789062 304.695312 392.265625 256 392.265625 C 207.304688 392.265625 167.828125 352.789062 167.828125 304.09375 Z M 167.828125 304.09375 " style=" stroke:none;fill-rule:nonzero;fill:rgb(65.882353%,87.843137%,34.901961%);fill-opacity:1;"/>
<path d="M 280.046875 384.25 C 231.351562 384.25 191.875 344.773438 191.875 296.078125 C 191.875 260.65625 238.523438 208.914062 263.957031 183.332031 C 259.03125 178.578125 256 175.84375 256 175.84375 C 256 175.84375 167.828125 255.398438 167.828125 304.09375 C 167.828125 352.789062 207.304688 392.265625 256 392.265625 C 270.25 392.265625 283.707031 388.882812 295.621094 382.878906 C 290.566406 383.78125 285.359375 384.25 280.046875 384.25 Z M 280.046875 384.25 " style=" stroke:none;fill-rule:nonzero;fill:rgb(57.254902%,85.098039%,18.823529%);fill-opacity:1;"/>
<path d="M 239.96875 103.203125 C 244.121094 103.203125 247.484375 99.835938 247.484375 95.6875 L 247.484375 77.03125 L 266.164062 100.382812 C 268.136719 102.847656 271.539062 103.824219 274.519531 102.777344 C 277.53125 101.722656 279.546875 98.878906 279.546875 95.6875 L 279.546875 55.609375 C 279.546875 51.457031 276.183594 48.09375 272.03125 48.09375 C 267.882812 48.09375 264.519531 51.457031 264.519531 55.609375 L 264.519531 74.265625 L 245.835938 50.914062 C 243.832031 48.410156 240.351562 47.449219 237.347656 48.566406 C 234.4375 49.652344 232.453125 52.503906 232.453125 55.609375 L 232.453125 95.6875 C 232.453125 99.835938 235.816406 103.203125 239.96875 103.203125 Z M 239.96875 103.203125 " style=" stroke:none;fill-rule:nonzero;fill:rgb(0%,0%,0%);fill-opacity:1;"/>
<path d="M 67.632812 360.703125 L 47.59375 360.703125 C 43.441406 360.703125 40.078125 364.070312 40.078125 368.21875 L 40.078125 416.3125 C 40.078125 420.464844 43.441406 423.828125 47.59375 423.828125 C 51.742188 423.828125 55.109375 420.464844 55.109375 416.3125 L 55.109375 399.765625 C 55.273438 399.773438 55.441406 399.78125 55.609375 399.78125 L 67.632812 399.78125 C 78.40625 399.78125 87.171875 391.015625 87.171875 380.242188 C 87.171875 369.46875 78.40625 360.703125 67.632812 360.703125 Z M 67.632812 384.75 L 55.609375 384.75 C 55.441406 384.75 55.273438 384.757812 55.109375 384.769531 L 55.109375 375.734375 L 67.632812 375.734375 C 70.117188 375.734375 72.140625 377.757812 72.140625 380.242188 C 72.140625 382.730469 70.117188 384.75 67.632812 384.75 Z M 67.632812 384.75 " style=" stroke:none;fill-rule:nonzero;fill:rgb(0%,0%,0%);fill-opacity:1;"/>
<path d="M 473.4375 333.796875 C 477.75 316.289062 479.9375 298.234375 479.9375 280.046875 C 479.9375 230.566406 464.125 183.667969 434.207031 144.417969 C 405.410156 106.636719 364.625 78.527344 319.296875 65.1875 C 316.054688 33.125 288.90625 8.015625 256 8.015625 C 223.09375 8.015625 195.945312 33.125 192.703125 65.1875 C 147.351562 78.53125 106.546875 106.667969 77.75 144.472656 C 47.863281 183.710938 32.0625 230.59375 32.0625 280.046875 C 32.0625 298.234375 34.25 316.289062 38.5625 333.796875 C 15.90625 343.542969 0 366.078125 0 392.265625 C 0 427.347656 28.542969 455.890625 63.625 455.890625 C 78.125 455.890625 91.5 451.003906 102.210938 442.808594 C 143.949219 482.28125 198.40625 503.984375 256 503.984375 C 313.664062 503.984375 368.0625 482.304688 409.800781 442.816406 C 420.511719 451.007812 433.882812 455.890625 448.375 455.890625 C 483.457031 455.890625 512 427.347656 512 392.265625 C 512 366.078125 496.09375 343.542969 473.4375 333.796875 Z M 256 23.046875 C 282.796875 23.046875 304.59375 44.84375 304.59375 71.640625 C 304.59375 98.433594 282.796875 120.234375 256 120.234375 C 229.203125 120.234375 207.40625 98.433594 207.40625 71.640625 C 207.40625 44.84375 229.203125 23.046875 256 23.046875 Z M 15.03125 392.265625 C 15.03125 365.472656 36.828125 343.671875 63.625 343.671875 C 90.417969 343.671875 112.21875 365.472656 112.21875 392.265625 C 112.21875 419.0625 90.417969 440.859375 63.625 440.859375 C 36.828125 440.859375 15.03125 419.0625 15.03125 392.265625 Z M 113 432.332031 C 121.902344 421.386719 127.25 407.441406 127.25 392.265625 C 127.25 357.183594 98.707031 328.640625 63.625 328.640625 C 60.007812 328.640625 56.464844 328.960938 53.011719 329.542969 C 49.097656 313.417969 47.09375 296.796875 47.09375 280.046875 C 47.09375 189.269531 106.875 108.007812 193.042969 80.792969 C 197.496094 111.554688 224.027344 135.265625 256 135.265625 C 287.972656 135.265625 314.503906 111.554688 318.957031 80.792969 C 405.132812 108.007812 464.90625 189.25 464.90625 280.046875 C 464.90625 296.796875 462.902344 313.417969 458.988281 329.542969 C 455.535156 328.960938 451.992188 328.640625 448.375 328.640625 C 413.292969 328.640625 384.75 357.183594 384.75 392.265625 C 384.75 407.441406 390.101562 421.386719 399 432.335938 C 360.125 468.890625 309.574219 488.953125 256 488.953125 C 202.488281 488.953125 151.878906 468.875 113 432.332031 Z M 448.375 440.859375 C 421.582031 440.859375 399.78125 419.0625 399.78125 392.265625 C 399.78125 365.472656 421.582031 343.671875 448.375 343.671875 C 475.171875 343.671875 496.96875 365.472656 496.96875 392.265625 C 496.96875 419.0625 475.171875 440.859375 448.375 440.859375 Z M 448.375 440.859375 " style=" stroke:none;fill-rule:nonzero;fill:rgb(0%,0%,0%);fill-opacity:1;"/>
<path d="M 470.417969 363.710938 C 467.929688 360.390625 463.21875 359.71875 459.898438 362.207031 L 439.859375 377.238281 L 439.859375 368.21875 C 439.859375 364.070312 436.496094 360.703125 432.34375 360.703125 C 428.191406 360.703125 424.828125 364.070312 424.828125 368.21875 L 424.828125 416.3125 C 424.828125 420.464844 428.191406 423.828125 432.34375 423.828125 C 436.496094 423.828125 439.859375 420.464844 439.859375 416.3125 L 439.859375 407.296875 L 459.898438 422.324219 C 463.175781 424.78125 467.960938 424.097656 470.417969 420.820312 C 472.910156 417.503906 472.234375 412.792969 468.914062 410.300781 L 444.867188 392.265625 L 468.914062 374.230469 C 472.234375 371.742188 472.910156 367.03125 470.417969 363.710938 Z M 470.417969 363.710938 " style=" stroke:none;fill-rule:nonzero;fill:rgb(0%,0%,0%);fill-opacity:1;"/>
<path d="M 301.773438 223.597656 C 298.542969 226.207031 298.042969 230.9375 300.648438 234.167969 C 324.207031 263.328125 336.65625 287.507812 336.65625 304.09375 C 336.65625 346.035156 304.476562 380.585938 263.515625 384.390625 L 263.515625 356.207031 L 308.261719 326.378906 C 311.714844 324.074219 312.648438 319.410156 310.347656 315.957031 C 308.042969 312.503906 303.378906 311.570312 299.925781 313.871094 L 263.515625 338.144531 L 263.515625 308.117188 L 308.261719 278.285156 C 311.714844 275.984375 312.648438 271.316406 310.347656 267.863281 C 308.042969 264.410156 303.378906 263.480469 299.925781 265.78125 L 263.515625 290.050781 L 263.515625 260.019531 L 284.214844 246.222656 C 287.667969 243.917969 288.601562 239.253906 286.300781 235.800781 C 283.996094 232.347656 279.332031 231.414062 275.878906 233.714844 L 263.515625 241.957031 L 263.515625 223.9375 C 263.515625 219.789062 260.152344 216.421875 256 216.421875 C 251.847656 216.421875 248.484375 219.789062 248.484375 223.9375 L 248.484375 241.957031 L 236.121094 233.714844 C 232.667969 231.414062 228.003906 232.347656 225.699219 235.800781 C 223.398438 239.253906 224.332031 243.917969 227.785156 246.21875 L 248.484375 260.023438 L 248.484375 290.054688 L 212.074219 265.777344 C 208.621094 263.476562 203.957031 264.410156 201.652344 267.863281 C 199.351562 271.316406 200.285156 275.980469 203.738281 278.285156 L 248.484375 308.117188 L 248.484375 339.238281 L 203.617188 313.601562 C 200.015625 311.542969 195.425781 312.792969 193.367188 316.398438 C 191.308594 320.003906 192.558594 324.59375 196.164062 326.652344 L 248.484375 356.546875 L 248.484375 384.390625 C 207.523438 380.585938 175.34375 346.03125 175.34375 304.09375 C 175.34375 269.316406 229.476562 211.082031 255.976562 186.097656 C 260.46875 190.367188 267.601562 197.3125 275.765625 205.914062 C 278.625 208.921875 283.382812 209.046875 286.390625 206.1875 C 289.398438 203.328125 289.523438 198.570312 286.664062 195.5625 C 272.40625 180.546875 261.492188 170.675781 261.035156 170.261719 C 258.175781 167.683594 253.828125 167.683594 250.964844 170.261719 C 247.265625 173.605469 160.3125 252.648438 160.3125 304.09375 C 160.3125 356.855469 203.238281 399.78125 256 399.78125 C 308.761719 399.78125 351.6875 356.855469 351.6875 304.09375 C 351.6875 283.746094 338.449219 257.042969 312.339844 224.722656 C 309.730469 221.492188 305.003906 220.988281 301.773438 223.597656 Z M 301.773438 223.597656 " style=" stroke:none;fill-rule:nonzero;fill:rgb(0%,0%,0%);fill-opacity:1;"/>
<path d="M 400.28125 15.03125 C 453.597656 15.03125 496.96875 58.402344 496.96875 111.71875 C 496.96875 115.867188 500.335938 119.234375 504.484375 119.234375 C 508.636719 119.234375 512 115.867188 512 111.71875 C 512 50.117188 461.882812 0 400.28125 0 C 396.128906 0 392.765625 3.363281 392.765625 7.515625 C 392.765625 11.664062 396.128906 15.03125 400.28125 15.03125 Z M 400.28125 15.03125 " style=" stroke:none;fill-rule:nonzero;fill:rgb(0%,0%,0%);fill-opacity:1;"/>
<path d="M 400.28125 87.171875 C 413.816406 87.171875 424.828125 98.183594 424.828125 111.71875 C 424.828125 115.867188 428.191406 119.234375 432.34375 119.234375 C 436.496094 119.234375 439.859375 115.867188 439.859375 111.71875 C 439.859375 89.894531 422.105469 72.140625 400.28125 72.140625 C 396.128906 72.140625 392.765625 75.503906 392.765625 79.65625 C 392.765625 83.804688 396.128906 87.171875 400.28125 87.171875 Z M 400.28125 87.171875 " style=" stroke:none;fill-rule:nonzero;fill:rgb(0%,0%,0%);fill-opacity:1;"/>
<path d="M 400.28125 55.109375 C 431.496094 55.109375 456.890625 80.503906 456.890625 111.71875 C 456.890625 115.867188 460.257812 119.234375 464.40625 119.234375 C 468.558594 119.234375 471.921875 115.867188 471.921875 111.71875 C 471.921875 72.214844 439.785156 40.078125 400.28125 40.078125 C 396.128906 40.078125 392.765625 43.441406 392.765625 47.59375 C 392.765625 51.742188 396.128906 55.109375 400.28125 55.109375 Z M 400.28125 55.109375 " style=" stroke:none;fill-rule:nonzero;fill:rgb(0%,0%,0%);fill-opacity:1;"/>
<path d="M 7.515625 119.234375 C 11.664062 119.234375 15.03125 115.867188 15.03125 111.71875 C 15.03125 58.402344 58.402344 15.03125 111.71875 15.03125 C 115.871094 15.03125 119.234375 11.664062 119.234375 7.515625 C 119.234375 3.363281 115.871094 0 111.71875 0 C 50.117188 0 0 50.117188 0 111.71875 C 0 115.867188 3.363281 119.234375 7.515625 119.234375 Z M 7.515625 119.234375 " style=" stroke:none;fill-rule:nonzero;fill:rgb(0%,0%,0%);fill-opacity:1;"/>
<path d="M 111.71875 72.140625 C 89.894531 72.140625 72.140625 89.894531 72.140625 111.71875 C 72.140625 115.867188 75.503906 119.234375 79.65625 119.234375 C 83.808594 119.234375 87.171875 115.867188 87.171875 111.71875 C 87.171875 98.183594 98.183594 87.171875 111.71875 87.171875 C 115.871094 87.171875 119.234375 83.804688 119.234375 79.65625 C 119.234375 75.503906 115.871094 72.140625 111.71875 72.140625 Z M 111.71875 72.140625 " style=" stroke:none;fill-rule:nonzero;fill:rgb(0%,0%,0%);fill-opacity:1;"/>
<path d="M 111.71875 40.078125 C 72.214844 40.078125 40.078125 72.214844 40.078125 111.71875 C 40.078125 115.867188 43.441406 119.234375 47.59375 119.234375 C 51.742188 119.234375 55.109375 115.867188 55.109375 111.71875 C 55.109375 80.503906 80.503906 55.109375 111.71875 55.109375 C 115.871094 55.109375 119.234375 51.742188 119.234375 47.59375 C 119.234375 43.441406 115.871094 40.078125 111.71875 40.078125 Z M 111.71875 40.078125 " style=" stroke:none;fill-rule:nonzero;fill:rgb(0%,0%,0%);fill-opacity:1;"/>
</g>
</svg>